<svg width="24" height="26" viewBox="0 0 24 26" fill="none" xmlns="http://www.w3.org/2000/svg">
<path opacity="0.6" fill-rule="evenodd" clip-rule="evenodd" d="M11.8182 26C5.25082 24.5405 0 18.3442 0 11.8182V4.72727L11.8182 0L23.6364 4.72727V11.8182C23.6364 18.3465 18.3855 24.5405 11.8182 26ZM2.36364 5.90909V11.8182C2.43117 14.5507 3.39225 17.1858 5.09976 19.3202C6.80727 21.4546 9.16714 22.9707 11.8182 23.6364C14.4692 22.9707 16.8291 21.4546 18.5366 19.3202C20.2441 17.1858 21.2052 14.5507 21.2727 11.8182V5.90909L11.8182 2.36364L2.36364 5.90909ZM11.8182 11.8182C13.4499 11.8182 14.7727 10.4954 14.7727 8.86364C14.7727 7.23189 13.4499 5.90909 11.8182 5.90909C10.1864 5.90909 8.86364 7.23189 8.86364 8.86364C8.86364 10.4954 10.1864 11.8182 11.8182 11.8182ZM8.38379 19.1179C7.34547 18.4949 6.49141 17.6071 5.90909 16.5455C5.93864 14.3047 9.84809 13 11.8182 13C13.7776 13 17.6977 14.3047 17.7273 16.5455C17.145 17.6071 16.2909 18.4949 15.2526 19.1179C14.2142 19.7409 13.029 20.0767 11.8182 20.0909C10.6074 20.0767 9.42211 19.7409 8.38379 19.1179Z" fill="white"/>
</svg>
