<svg width="22" height="34" viewBox="0 0 22 34" fill="none" xmlns="http://www.w3.org/2000/svg">
<path opacity="0.6" fill-rule="evenodd" clip-rule="evenodd" d="M5.02631 4.40048C5.02631 3.17701 6.00867 2.18519 7.22047 2.18519C8.43227 2.18519 9.41463 3.17701 9.41463 4.40048C9.41463 5.62396 8.43227 6.61578 7.22047 6.61578C6.00867 6.61578 5.02631 5.62396 5.02631 4.40048ZM7.22047 1C5.36036 1 3.85244 2.52245 3.85244 4.40048C3.85244 6.27852 5.36036 7.80097 7.22047 7.80097C9.08059 7.80097 10.5885 6.27852 10.5885 4.40048C10.5885 2.52245 9.08059 1 7.22047 1ZM6.57865 8.0557C3.49765 8.0557 1 10.5774 1 13.6881V20.1678C1 21.1313 1.77361 21.9124 2.7279 21.9124H3.1394V30.8235C3.1394 32.0255 4.10457 33 5.29516 33H9.14591C9.96445 33 10.6764 32.5394 11.0415 31.8609C11.0281 31.8857 11.0144 31.9102 11.0001 31.9344C11.3759 32.5725 12.0657 33 12.8543 33H16.705C17.8956 33 18.8608 32.0255 18.8608 30.8235V21.9124H19.2721C20.2264 21.9124 21 21.1313 21 20.1678V13.6881C21 10.5774 18.5024 8.0557 15.4214 8.0557H14.1378C12.9743 8.0557 11.894 8.4153 11 9.03043C10.106 8.4153 9.02571 8.0557 7.86224 8.0557H6.57865ZM11.513 9.42918C12.6939 10.4619 13.4409 11.9869 13.4409 13.6881V20.1678C13.4409 21.0771 12.752 21.8238 11.8724 21.9051V30.8235C11.8724 31.371 12.312 31.8148 12.8543 31.8148H16.705C17.2473 31.8148 17.6869 31.371 17.6869 30.8235V21.3198H17.7573V20.7272H19.2721C19.5781 20.7272 19.8261 20.4768 19.8261 20.1678V13.6881C19.8261 11.232 17.854 9.24089 15.4214 9.24089H14.1378C13.3346 9.24089 12.5816 9.45793 11.9332 9.83709C11.8003 9.6939 11.66 9.55773 11.513 9.42918ZM4.31327 21.3198H4.24273V20.7272H2.7279C2.42192 20.7272 2.17388 20.4768 2.17388 20.1678V13.6881C2.17388 11.232 4.14596 9.24089 6.57865 9.24089H7.86224C10.2949 9.24089 12.267 11.232 12.267 13.6881V20.1678C12.267 20.4768 12.019 20.7272 11.713 20.7272H10.1982V21.3198H10.1278V30.8235C10.1278 31.371 9.68819 31.8148 9.14591 31.8148H5.29516C4.75288 31.8148 4.31327 31.371 4.31327 30.8235V21.3198ZM7.59348 17.7919V17.0509L9.0508 17.9538L7.59348 18.9236V18.0799C7.59348 18.0331 7.5881 17.9876 7.57794 17.9439C7.58812 17.8949 7.59348 17.844 7.59348 17.7919ZM6.4196 19.7565V18.5285H4.43937C4.11522 18.5285 3.85244 18.2632 3.85244 17.9359C3.85244 17.6087 4.11522 17.3433 4.43937 17.3433H6.4196V16.2493C6.4196 15.6735 7.04462 15.3203 7.53073 15.6215L10.2601 17.3125C10.7153 17.5945 10.7259 18.2586 10.28 18.5553L7.55065 20.3715C7.06557 20.6943 6.4196 20.3431 6.4196 19.7565ZM7.59348 11.7231V12.4641C7.59348 12.5162 7.58812 12.567 7.57794 12.6161C7.5881 12.6597 7.59348 12.7053 7.59348 12.7521V13.5957L9.0508 12.626L7.59348 11.7231ZM6.4196 13.2007V14.4287C6.4196 15.0152 7.06557 15.3665 7.55065 15.0437L10.28 13.2275C10.7259 12.9307 10.7153 12.2667 10.2601 11.9846L7.53073 10.2937C7.04462 9.99251 6.4196 10.3457 6.4196 10.9215V12.0155H4.43937C4.11522 12.0155 3.85244 12.2808 3.85244 12.6081C3.85244 12.9354 4.11522 13.2007 4.43937 13.2007H6.4196ZM14.7796 2.18519C13.5678 2.18519 12.5854 3.17701 12.5854 4.40048C12.5854 5.62396 13.5678 6.61578 14.7796 6.61578C15.9914 6.61578 16.9737 5.62396 16.9737 4.40048C16.9737 3.17701 15.9914 2.18519 14.7796 2.18519ZM11.4116 4.40048C11.4116 2.52245 12.9195 1 14.7796 1C16.6397 1 18.1476 2.52245 18.1476 4.40048C18.1476 6.27852 16.6397 7.80097 14.7796 7.80097C12.9195 7.80097 11.4116 6.27852 11.4116 4.40048Z" fill="white" stroke="white" stroke-width="0.3"/>
</svg>
