<svg width="28" height="28" viewBox="0 0 28 28" fill="none" xmlns="http://www.w3.org/2000/svg">
<g opacity="0.6">
<path d="M19.8333 23.3334H19.6C17.6398 23.3334 16.6597 23.3334 15.911 22.9519C15.2525 22.6163 14.717 22.0809 14.3815 21.4223C14 20.6736 14 19.6936 14 17.7334V10.2667C14 8.30652 14 7.32643 14.3815 6.57774C14.717 5.91917 15.2525 5.38374 15.911 5.04818C16.6597 4.66671 17.6398 4.66671 19.6 4.66671H19.8333M19.8333 23.3334C19.8333 24.622 20.878 25.6667 22.1667 25.6667C23.4553 25.6667 24.5 24.622 24.5 23.3334C24.5 22.0447 23.4553 21 22.1667 21C20.878 21 19.8333 22.0447 19.8333 23.3334ZM19.8333 4.66671C19.8333 5.95537 20.878 7.00004 22.1667 7.00004C23.4553 7.00004 24.5 5.95537 24.5 4.66671C24.5 3.37804 23.4553 2.33337 22.1667 2.33337C20.878 2.33337 19.8333 3.37804 19.8333 4.66671ZM8.16667 14L19.8333 14M8.16667 14C8.16667 15.2887 7.122 16.3334 5.83333 16.3334C4.54467 16.3334 3.5 15.2887 3.5 14C3.5 12.7114 4.54467 11.6667 5.83333 11.6667C7.122 11.6667 8.16667 12.7114 8.16667 14ZM19.8333 14C19.8333 15.2887 20.878 16.3334 22.1667 16.3334C23.4553 16.3334 24.5 15.2887 24.5 14C24.5 12.7114 23.4553 11.6667 22.1667 11.6667C20.878 11.6667 19.8333 12.7114 19.8333 14Z" stroke="white" stroke-width="2" stroke-linecap="round" stroke-linejoin="round"/>
</g>
</svg>
