<svg width="28" height="28" viewBox="0 0 28 28" fill="none" xmlns="http://www.w3.org/2000/svg">
<g opacity="0.6">
<path d="M10.6051 10.5C10.8794 9.72031 11.4208 9.06282 12.1334 8.64402C12.846 8.22521 13.6838 8.07212 14.4985 8.21186C15.3132 8.35159 16.0521 8.77514 16.5844 9.40748C17.1167 10.0398 17.408 10.8401 17.4068 11.6667C17.4068 14 13.9068 15.1667 13.9068 15.1667M14.0002 19.8334H14.0118M2.3335 9.94324V18.0568C2.3335 18.3422 2.3335 18.4849 2.36573 18.6191C2.39431 18.7382 2.44145 18.852 2.50542 18.9564C2.57756 19.0741 2.67845 19.175 2.88023 19.3768L8.62343 25.12C8.82521 25.3217 8.92609 25.4226 9.04383 25.4948C9.14821 25.5588 9.26202 25.6059 9.38106 25.6345C9.51533 25.6667 9.65801 25.6667 9.94336 25.6667H18.057C18.3423 25.6667 18.485 25.6667 18.6193 25.6345C18.7383 25.6059 18.8521 25.5588 18.9565 25.4948C19.0742 25.4226 19.1751 25.3217 19.3769 25.12L25.1201 19.3768C25.3219 19.175 25.4228 19.0741 25.4949 18.9564C25.5589 18.852 25.606 18.7382 25.6346 18.6191C25.6668 18.4849 25.6668 18.3422 25.6668 18.0568V9.94324C25.6668 9.65788 25.6668 9.51521 25.6346 9.38094C25.606 9.26189 25.5589 9.14809 25.4949 9.04371C25.4228 8.92597 25.3219 8.82508 25.1201 8.62331L19.3769 2.88011C19.1751 2.67833 19.0742 2.57744 18.9565 2.50529C18.8521 2.44133 18.7383 2.39419 18.6193 2.36561C18.485 2.33337 18.3423 2.33337 18.057 2.33337H9.94336C9.65801 2.33337 9.51533 2.33337 9.38106 2.36561C9.26202 2.39419 9.14821 2.44133 9.04383 2.50529C8.92609 2.57744 8.82521 2.67833 8.62343 2.88011L2.88023 8.62331C2.67845 8.82508 2.57756 8.92597 2.50542 9.04371C2.44145 9.14809 2.39431 9.26189 2.36573 9.38094C2.3335 9.51521 2.3335 9.65788 2.3335 9.94324Z" stroke="white" stroke-width="2" stroke-linecap="round" stroke-linejoin="round"/>
</g>
</svg>
