<svg width="24" height="25" viewBox="0 0 24 25" fill="none" xmlns="http://www.w3.org/2000/svg">
<path d="M13.146 2.22467C12.7361 1.90587 12.5312 1.74647 12.3049 1.6852C12.1052 1.63114 11.8948 1.63114 11.6951 1.6852C11.4688 1.74647 11.2639 1.90587 10.854 2.22467L2.94129 8.37898C2.41236 8.79037 2.14789 8.99606 1.95736 9.25367C1.78859 9.48185 1.66287 9.73891 1.58637 10.0122C1.5 10.3208 1.5 10.6558 1.5 11.3259V19.7666C1.5 21.0734 1.5 21.7268 1.75432 22.226C1.97802 22.665 2.33498 23.022 2.77402 23.2457C3.27315 23.5 3.92654 23.5 5.23333 23.5H7.56667C7.89336 23.5 8.05671 23.5 8.18149 23.4364C8.29126 23.3805 8.38049 23.2912 8.43642 23.1815C8.5 23.0567 8.5 22.8933 8.5 22.5666V14.8666C8.5 14.2133 8.5 13.8866 8.62716 13.637C8.73901 13.4175 8.91749 13.239 9.13701 13.1271C9.38657 13 9.71327 13 10.3667 13H13.6333C14.2867 13 14.6134 13 14.863 13.1271C15.0825 13.239 15.261 13.4175 15.3728 13.637C15.5 13.8866 15.5 14.2133 15.5 14.8666V22.5666C15.5 22.8933 15.5 23.0567 15.5636 23.1815C15.6195 23.2912 15.7087 23.3805 15.8185 23.4364C15.9433 23.5 16.1066 23.5 16.4333 23.5H18.7667C20.0735 23.5 20.7269 23.5 21.226 23.2457C21.665 23.022 22.022 22.665 22.2457 22.226C22.5 21.7268 22.5 21.0734 22.5 19.7666V11.3259C22.5 10.6558 22.5 10.3208 22.4136 10.0122C22.3371 9.73891 22.2114 9.48185 22.0426 9.25367C21.8521 8.99606 21.5876 8.79037 21.0587 8.37898L13.146 2.22467Z" stroke="white" stroke-width="2" stroke-linecap="round" stroke-linejoin="round"/>
</svg>
