<svg width="28" height="28" viewBox="0 0 28 28" fill="none" xmlns="http://www.w3.org/2000/svg">
<g opacity="0.6">
<path d="M21.0002 2.33337L25.6668 7.00004M2.3335 25.6667L3.82263 20.2065C3.91978 19.8503 3.96836 19.6722 4.04293 19.5061C4.10915 19.3586 4.1905 19.2184 4.2857 19.0878C4.39291 18.9406 4.52346 18.8101 4.78455 18.549L16.8402 6.49334C17.0712 6.26233 17.1867 6.14683 17.3199 6.10355C17.4371 6.06548 17.5633 6.06548 17.6804 6.10355C17.8136 6.14683 17.9291 6.26233 18.1601 6.49334L21.5069 9.84007C21.7379 10.0711 21.8534 10.1866 21.8967 10.3198C21.9347 10.4369 21.9347 10.5631 21.8967 10.6803C21.8534 10.8135 21.7379 10.929 21.5069 11.16L9.45122 23.2157C9.19013 23.4767 9.05958 23.6073 8.91242 23.7145C8.78177 23.8097 8.64157 23.8911 8.4941 23.9573C8.328 24.0318 8.14989 24.0804 7.79366 24.1776L2.3335 25.6667Z" stroke="white" stroke-width="2" stroke-linecap="round" stroke-linejoin="round"/>
</g>
</svg>
