<svg width="28" height="28" viewBox="0 0 28 28" fill="none" xmlns="http://www.w3.org/2000/svg">
<g opacity="0.6">
<path d="M14.0007 17.5C15.9336 17.5 17.5007 15.933 17.5007 14C17.5007 12.067 15.9336 10.5 14.0007 10.5C12.0677 10.5 10.5007 12.067 10.5007 14C10.5007 15.933 12.0677 17.5 14.0007 17.5Z" stroke="#FFFCFC" stroke-width="2" stroke-linecap="round" stroke-linejoin="round"/>
<path d="M21.8491 17.1818C21.708 17.5017 21.6658 17.8566 21.7282 18.2006C21.7906 18.5447 21.9546 18.8622 22.1991 19.1121L22.2628 19.1758C22.46 19.3728 22.6165 19.6067 22.7232 19.8642C22.83 20.1217 22.8849 20.3978 22.8849 20.6765C22.8849 20.9553 22.83 21.2313 22.7232 21.4888C22.6165 21.7463 22.46 21.9803 22.2628 22.1773C22.0658 22.3745 21.8318 22.531 21.5743 22.6377C21.3168 22.7445 21.0408 22.7994 20.762 22.7994C20.4833 22.7994 20.2072 22.7445 19.9497 22.6377C19.6922 22.531 19.4583 22.3745 19.2613 22.1773L19.1976 22.1136C18.9477 21.8691 18.6302 21.7051 18.2861 21.6427C17.9421 21.5803 17.5872 21.6225 17.2673 21.7636C16.9536 21.8981 16.6861 22.1213 16.4976 22.4059C16.3092 22.6904 16.2081 23.0239 16.2067 23.3652V23.5455C16.2067 24.108 15.9832 24.6476 15.5854 25.0454C15.1876 25.4432 14.6481 25.6667 14.0855 25.6667C13.5229 25.6667 12.9834 25.4432 12.5856 25.0454C12.1878 24.6476 11.9643 24.108 11.9643 23.5455V23.45C11.9561 23.0989 11.8424 22.7585 11.6382 22.4729C11.4339 22.1873 11.1484 21.9697 10.8188 21.8485C10.4989 21.7073 10.1441 21.6652 9.80003 21.7276C9.45597 21.79 9.13849 21.954 8.88853 22.1985L8.82489 22.2621C8.62789 22.4593 8.39394 22.6158 8.13643 22.7226C7.87892 22.8293 7.6029 22.8842 7.32414 22.8842C7.04538 22.8842 6.76935 22.8293 6.51184 22.7226C6.25433 22.6158 6.02038 22.4593 5.82338 22.2621C5.62616 22.0651 5.4697 21.8312 5.36295 21.5737C5.2562 21.3162 5.20126 21.0401 5.20126 20.7614C5.20126 20.4826 5.2562 20.2066 5.36295 19.9491C5.4697 19.6916 5.62616 19.4576 5.82338 19.2606L5.88701 19.197C6.13152 18.947 6.29554 18.6295 6.35793 18.2855C6.42031 17.9414 6.3782 17.5866 6.23701 17.2667C6.10257 16.953 5.87933 16.6854 5.59478 16.497C5.31023 16.3086 4.97679 16.2074 4.6355 16.2061H4.4552C3.89262 16.2061 3.35308 15.9826 2.95527 15.5848C2.55747 15.187 2.33398 14.6474 2.33398 14.0849C2.33398 13.5223 2.55747 12.9827 2.95527 12.5849C3.35308 12.1871 3.89262 11.9636 4.4552 11.9636H4.55065C4.90171 11.9554 5.24217 11.8418 5.52779 11.6375C5.8134 11.4332 6.03096 11.1478 6.15217 10.8182C6.29335 10.4983 6.33546 10.1434 6.27308 9.79938C6.2107 9.45532 6.04667 9.13784 5.80217 8.88788L5.73853 8.82424C5.54131 8.62724 5.38485 8.3933 5.2781 8.13578C5.17135 7.87827 5.11641 7.60225 5.11641 7.32349C5.11641 7.04473 5.17135 6.7687 5.2781 6.51119C5.38485 6.25368 5.54131 6.01973 5.73853 5.82273C5.93553 5.62551 6.16948 5.46905 6.42699 5.3623C6.6845 5.25555 6.96053 5.20061 7.23929 5.20061C7.51805 5.20061 7.79407 5.25555 8.05159 5.3623C8.3091 5.46905 8.54304 5.62551 8.74004 5.82273L8.80368 5.88637C9.05364 6.13087 9.37112 6.2949 9.71518 6.35728C10.0592 6.41966 10.4141 6.37755 10.734 6.23637H10.8188C11.1325 6.10192 11.4001 5.87868 11.5885 5.59413C11.777 5.30958 11.8781 4.97614 11.8794 4.63485V4.45455C11.8794 3.89197 12.1029 3.35243 12.5007 2.95462C12.8985 2.55682 13.4381 2.33334 14.0007 2.33334C14.5632 2.33334 15.1028 2.55682 15.5006 2.95462C15.8984 3.35243 16.1219 3.89197 16.1219 4.45455V4.55C16.1232 4.89129 16.2244 5.22473 16.4128 5.50928C16.6012 5.79383 16.8688 6.01707 17.1825 6.15152C17.5024 6.2927 17.8572 6.33482 18.2013 6.27243C18.5453 6.21005 18.8628 6.04603 19.1128 5.80152L19.1764 5.73788C19.3734 5.54066 19.6074 5.3842 19.8649 5.27745C20.1224 5.1707 20.3984 5.11576 20.6772 5.11576C20.9559 5.11576 21.232 5.1707 21.4895 5.27745C21.747 5.3842 21.9809 5.54066 22.1779 5.73788C22.3751 5.93488 22.5316 6.16883 22.6384 6.42634C22.7451 6.68385 22.8 6.95988 22.8 7.23864C22.8 7.5174 22.7451 7.79343 22.6384 8.05094C22.5316 8.30845 22.3751 8.54239 22.1779 8.7394L22.1143 8.80303C21.8698 9.053 21.7058 9.37047 21.6434 9.71453C21.581 10.0586 21.6231 10.4134 21.7643 10.7333V10.8182C21.8987 11.1319 22.122 11.3994 22.4065 11.5879C22.6911 11.7763 23.0245 11.8774 23.3658 11.8788H23.5461C24.1087 11.8788 24.6482 12.1023 25.046 12.5001C25.4438 12.8979 25.6673 13.4374 25.6673 14C25.6673 14.5626 25.4438 15.1021 25.046 15.4999C24.6482 15.8977 24.1087 16.1212 23.5461 16.1212H23.4507C23.1094 16.1226 22.7759 16.2237 22.4914 16.4121C22.2068 16.6006 21.9836 16.8681 21.8491 17.1818Z" stroke="#FFFCFC" stroke-width="2" stroke-linecap="round" stroke-linejoin="round"/>
</g>
</svg>
