<svg width="28" height="28" viewBox="0 0 28 28" fill="none" xmlns="http://www.w3.org/2000/svg">
<g opacity="0.6">
<path d="M14.0002 17.5C15.9332 17.5 17.5002 15.933 17.5002 14C17.5002 12.067 15.9332 10.5 14.0002 10.5C12.0672 10.5 10.5002 12.067 10.5002 14C10.5002 15.933 12.0672 17.5 14.0002 17.5Z" stroke="#FFFCFC" stroke-width="2" stroke-linecap="round" stroke-linejoin="round"/>
<path d="M21.8486 17.1819C21.7075 17.5018 21.6653 17.8566 21.7277 18.2007C21.7901 18.5447 21.9541 18.8622 22.1986 19.1122L22.2623 19.1758C22.4595 19.3728 22.616 19.6067 22.7227 19.8643C22.8295 20.1218 22.8844 20.3978 22.8844 20.6766C22.8844 20.9553 22.8295 21.2313 22.7227 21.4889C22.616 21.7464 22.4595 21.9803 22.2623 22.1773C22.0653 22.3745 21.8313 22.531 21.5738 22.6377C21.3163 22.7445 21.0403 22.7994 20.7615 22.7994C20.4828 22.7994 20.2067 22.7445 19.9492 22.6377C19.6917 22.531 19.4578 22.3745 19.2608 22.1773L19.1971 22.1137C18.9472 21.8692 18.6297 21.7051 18.2856 21.6428C17.9416 21.5804 17.5867 21.6225 17.2668 21.7637C16.9531 21.8981 16.6856 22.1214 16.4972 22.4059C16.3087 22.6905 16.2076 23.0239 16.2062 23.3652V23.5455C16.2062 24.1081 15.9827 24.6476 15.5849 25.0454C15.1871 25.4432 14.6476 25.6667 14.085 25.6667C13.5224 25.6667 12.9829 25.4432 12.5851 25.0454C12.1873 24.6476 11.9638 24.1081 11.9638 23.5455V23.45C11.9556 23.099 11.842 22.7585 11.6377 22.4729C11.4334 22.1873 11.1479 21.9697 10.8183 21.8485C10.4984 21.7073 10.1436 21.6652 9.79954 21.7276C9.45548 21.79 9.138 21.954 8.88804 22.1985L8.8244 22.2622C8.6274 22.4594 8.39346 22.6158 8.13595 22.7226C7.87843 22.8293 7.60241 22.8843 7.32365 22.8843C7.04489 22.8843 6.76886 22.8293 6.51135 22.7226C6.25384 22.6158 6.01989 22.4594 5.82289 22.2622C5.62567 22.0652 5.46921 21.8312 5.36246 21.5737C5.25571 21.3162 5.20077 21.0402 5.20077 20.7614C5.20077 20.4826 5.25571 20.2066 5.36246 19.9491C5.46921 19.6916 5.62567 19.4576 5.82289 19.2606L5.88653 19.197C6.13103 18.947 6.29506 18.6296 6.35744 18.2855C6.41982 17.9415 6.37771 17.5866 6.23653 17.2667C6.10208 16.953 5.87884 16.6855 5.59429 16.497C5.30974 16.3086 4.9763 16.2075 4.63501 16.2061H4.45471C3.89213 16.2061 3.35259 15.9826 2.95478 15.5848C2.55698 15.187 2.3335 14.6475 2.3335 14.0849C2.3335 13.5223 2.55698 12.9828 2.95478 12.585C3.35259 12.1872 3.89213 11.9637 4.45471 11.9637H4.55016C4.90122 11.9555 5.24168 11.8418 5.5273 11.6376C5.81291 11.4333 6.03047 11.1478 6.15168 10.8182C6.29286 10.4983 6.33498 10.1435 6.27259 9.79942C6.21021 9.45536 6.04619 9.13788 5.80168 8.88792L5.73804 8.82428C5.54082 8.62728 5.38436 8.39333 5.27761 8.13582C5.17086 7.87831 5.11592 7.60229 5.11592 7.32353C5.11592 7.04477 5.17086 6.76874 5.27761 6.51123C5.38436 6.25372 5.54082 6.01977 5.73804 5.82277C5.93505 5.62555 6.16899 5.46909 6.4265 5.36234C6.68401 5.25559 6.96004 5.20064 7.2388 5.20064C7.51756 5.20064 7.79359 5.25559 8.0511 5.36234C8.30861 5.46909 8.54255 5.62555 8.73956 5.82277L8.80319 5.8864C9.05316 6.13091 9.37063 6.29493 9.71469 6.35732C10.0587 6.4197 10.4136 6.37759 10.7335 6.2364H10.8183C11.132 6.10196 11.3996 5.87872 11.588 5.59417C11.7765 5.30962 11.8776 4.97618 11.879 4.63489V4.45459C11.879 3.89201 12.1024 3.35247 12.5002 2.95466C12.898 2.55686 13.4376 2.33337 14.0002 2.33337C14.5627 2.33337 15.1023 2.55686 15.5001 2.95466C15.8979 3.35247 16.1214 3.89201 16.1214 4.45459V4.55004C16.1227 4.89133 16.2239 5.22477 16.4123 5.50932C16.6008 5.79387 16.8683 6.01711 17.182 6.15156C17.5019 6.29274 17.8567 6.33485 18.2008 6.27247C18.5448 6.21009 18.8623 6.04606 19.1123 5.80156L19.1759 5.73792C19.3729 5.5407 19.6069 5.38424 19.8644 5.27749C20.1219 5.17074 20.3979 5.1158 20.6767 5.1158C20.9554 5.1158 21.2315 5.17074 21.489 5.27749C21.7465 5.38424 21.9804 5.5407 22.1774 5.73792C22.3747 5.93492 22.5311 6.16887 22.6379 6.42638C22.7446 6.68389 22.7996 6.95992 22.7996 7.23868C22.7996 7.51744 22.7446 7.79346 22.6379 8.05097C22.5311 8.30849 22.3747 8.54243 22.1774 8.73943L22.1138 8.80307C21.8693 9.05303 21.7053 9.37051 21.6429 9.71457C21.5805 10.0586 21.6226 10.4135 21.7638 10.7334V10.8182C21.8982 11.1319 22.1215 11.3995 22.406 11.5879C22.6906 11.7763 23.024 11.8775 23.3653 11.8788H23.5456C24.1082 11.8788 24.6477 12.1023 25.0455 12.5001C25.4433 12.8979 25.6668 13.4375 25.6668 14C25.6668 14.5626 25.4433 15.1022 25.0455 15.5C24.6477 15.8978 24.1082 16.1213 23.5456 16.1213H23.4502C23.1089 16.1226 22.7754 16.2237 22.4909 16.4122C22.2063 16.6006 21.9831 16.8682 21.8486 17.1819Z" stroke="#FFFCFC" stroke-width="2" stroke-linecap="round" stroke-linejoin="round"/>
</g>
</svg>
